<svg width="173" height="181" viewBox="0 0 173 181" fill="none" xmlns="http://www.w3.org/2000/svg">
<circle cx="86.5" cy="94.5" r="86.5" fill="#FFCD00"/>
<path d="M79.95 106.888L75.522 45.388C75.3033 42.108 75.686 39.4293 76.67 37.352C77.654 35.1653 79.0207 33.58 80.77 32.596C82.5193 31.612 84.4873 31.12 86.674 31.12C88.8607 31.12 90.774 31.612 92.414 32.596C94.1633 33.58 95.53 35.1653 96.514 37.352C97.6073 39.5387 98.0447 42.436 97.826 46.044L93.07 106.888H79.95ZM86.346 142.64C82.8473 142.64 79.786 141.492 77.162 139.196C74.6473 136.791 73.39 133.893 73.39 130.504C73.39 127.115 74.6473 124.163 77.162 121.648C79.786 119.133 82.8473 117.876 86.346 117.876C90.0633 117.876 93.1793 119.188 95.694 121.812C98.318 124.327 99.63 127.224 99.63 130.504C99.63 133.675 98.2633 136.517 95.53 139.032C92.906 141.437 89.8447 142.64 86.346 142.64Z" fill="white"/>
</svg>
